<svg width="21" height="20" viewBox="0 0 21 20" fill="none" xmlns="http://www.w3.org/2000/svg">
<path d="M11.0642 4.32315C10.5761 3.83499 9.78463 3.83499 9.29648 4.32315L6.65003 6.96959C6.35714 7.26249 6.35714 7.73736 6.65003 8.03025C6.94292 8.32315 7.4178 8.32315 7.71069 8.03025L10.1804 5.56058L12.65 8.03025C12.9429 8.32315 13.4178 8.32315 13.7107 8.03025C14.0036 7.73736 14.0036 7.26249 13.7107 6.96959L11.0642 4.32315Z" fill="#8A8A8A"/>
<path d="M13.7107 13.0304L11.0642 15.6769C10.5761 16.165 9.78463 16.165 9.29648 15.6769L6.65003 13.0304C6.35714 12.7375 6.35714 12.2626 6.65003 11.9697C6.94292 11.6769 7.4178 11.6769 7.71069 11.9697L10.1804 14.4394L12.65 11.9697C12.9429 11.6769 13.4178 11.6769 13.7107 11.9697C14.0036 12.2626 14.0036 12.7375 13.7107 13.0304Z" fill="#8A8A8A"/>
</svg>
