<svg width="20" height="20" viewBox="0 0 20 20" fill="none" xmlns="http://www.w3.org/2000/svg">
<path d="M12.7196 13.7803C13.0125 14.0732 13.4874 14.0732 13.7803 13.7803C14.0732 13.4874 14.0732 13.0126 13.7803 12.7197L11.0606 10L13.7803 7.28033C14.0732 6.98744 14.0732 6.51256 13.7803 6.21967C13.4874 5.92678 13.0125 5.92678 12.7196 6.21967L9.99994 8.93934L7.28027 6.21967C6.98738 5.92678 6.5125 5.92678 6.21961 6.21967C5.92672 6.51256 5.92672 6.98744 6.21961 7.28033L8.93928 10L6.21961 12.7197C5.92672 13.0126 5.92672 13.4874 6.21961 13.7803C6.5125 14.0732 6.98738 14.0732 7.28027 13.7803L9.99994 11.0607L12.7196 13.7803Z" fill="#4A4A4A"/>
</svg>
